<?xml version="1.0" encoding="utf-8"?>
<!DOCTYPE svg PUBLIC "-//W3C//DTD SVG 1.1//EN" "http://www.w3.org/Graphics/SVG/1.1/DTD/svg11.dtd">
<svg version="1.1" id="content-zoo" xmlns="http://www.w3.org/2000/svg" xmlns:xlink="http://www.w3.org/1999/xlink" x="0px"
	 y="0px" width="800px" height="600px" viewBox="0 0 800 600" enable-background="new 0 0 800 600" xml:space="preserve">
<rect x="0" fill="#2190D7" width="800" height="600"/>
<path fill="#FFFFFF" d="M514.912,228c-31.225,0-57.873,19.547-68.346,47.046C436.092,247.547,409.424,228,378.218,228
	c-40.375,0-73.106,32.687-73.106,73c0,11.113,2.484,21.639,6.939,31.052h-34.22l42.554-99.693H214v38.679h45.283l-42.009,98.603
	h103.11v-23.972C333.763,362.908,354.691,374,378.218,374c31.207,0,57.875-19.546,68.347-47.046
	c10.479,27.5,37.123,47.046,68.348,47.046c40.375,0,73.111-32.688,73.111-73C588.024,260.687,555.287,228,514.912,228z
	 M378.218,332.598c-17.482,0-31.643-14.143-31.643-31.597c0-17.454,14.164-31.596,31.643-31.596c17.479,0,31.64,14.144,31.64,31.596
	C409.858,318.455,395.697,332.598,378.218,332.598z M514.912,332.598c-17.48,0-31.643-14.143-31.643-31.597
	c0-17.454,14.166-31.596,31.643-31.596c17.459,0,31.643,14.144,31.643,31.596C546.559,318.455,532.373,332.598,514.912,332.598z"/>
</svg>